<svg width="109" height="30" viewBox="0 0 109 30" fill="none" xmlns="http://www.w3.org/2000/svg">
<path id="Vector" fill-rule="evenodd" clip-rule="evenodd" d="M102.112 30L98.4839 15.5775C98.0463 13.8476 97.757 12.1168 97.4676 10.5302H97.3214C97.0321 12.261 96.8859 13.8476 96.4504 15.7217L92.8199 30H86.5784L94.8534 0.00203037H99.7894L108.5 30H102.112ZM6.88674 0.00203037L10.5161 14.4236C11.0969 16.1544 11.242 17.8862 11.5324 19.4708H11.6776C11.9679 17.741 12.1131 16.0091 12.5486 14.2793L16.178 0.00203037H22.4196L14.1456 30H9.20956L0.5 0.00203037H6.88674ZM26.918 0.00203037H32.8703V30H26.918V0.00203037ZM66.5491 0.00203037L69.5958 17.742L72.0638 0.00203037H80.0475L83.0962 30H76.9998L75.548 8.36668L74.5318 15.7217L72.0638 30H67.4192L64.5156 15.5775L63.4994 8.94363V8.36668H63.3542L62.4832 30H56.0954L58.7096 0.00203037H66.5491ZM47.6772 0.00203037C46.661 0.723209 45.9361 2.02031 45.3554 3.31843C43.7585 6.92433 45.4996 9.80802 46.9513 12.4043C47.0975 12.6927 47.3889 13.1254 47.532 13.5582C50.8711 19.0381 52.0325 23.0757 49.7107 28.8441L49.13 29.999H41.8712C42.7423 29.2768 43.6123 28.2692 44.0478 27.1143C45.791 23.2199 43.7585 19.615 41.8712 16.0081C39.6946 11.8263 37.3707 7.50025 39.8387 1.58659C39.9849 1.00965 40.5656 0 40.5656 0H47.6772V0.00203037Z" fill="white"/>
</svg>
