<svg width="30" height="30" viewBox="0 0 30 30" fill="none" xmlns="http://www.w3.org/2000/svg">
<g id="ic:baseline-phone">
<path id="Vector" d="M8.275 13.4875C10.075 17.025 12.975 19.9125 16.5125 21.725L19.2625 18.975C19.6 18.6375 20.1 18.525 20.5375 18.675C21.9375 19.1375 23.45 19.3875 25 19.3875C25.6875 19.3875 26.25 19.95 26.25 20.6375V25C26.25 25.6875 25.6875 26.25 25 26.25C13.2625 26.25 3.75 16.7375 3.75 5C3.75 4.3125 4.3125 3.75 5 3.75H9.375C10.0625 3.75 10.625 4.3125 10.625 5C10.625 6.5625 10.875 8.0625 11.3375 9.4625C11.475 9.9 11.375 10.3875 11.025 10.7375L8.275 13.4875Z" fill="white"/>
</g>
</svg>
