<svg width="10" height="10" viewBox="0 0 10 10" fill="none" xmlns="http://www.w3.org/2000/svg">
<path d="M5 8C4.88042 8 4.76472 7.98092 4.65291 7.94275C4.54051 7.90458 4.44694 7.85369 4.3722 7.79008L0.246636 4.27863C0.0822119 4.13868 0 3.96056 0 3.74427C0 3.52799 0.0822119 3.34987 0.246636 3.20992C0.411061 3.06997 0.620329 3 0.874439 3C1.12855 3 1.33782 3.06997 1.50224 3.20992L5 6.18702L8.49776 3.20992C8.66218 3.06997 8.87145 3 9.12556 3C9.37967 3 9.58894 3.06997 9.75336 3.20992C9.91779 3.34987 10 3.52799 10 3.74427C10 3.96056 9.91779 4.13868 9.75336 4.27863L5.6278 7.79008C5.53812 7.86641 5.44096 7.92036 5.33632 7.95191C5.23169 7.98397 5.11958 8 5 8Z" fill="#5DB7DE"/>
</svg>
