<svg width="108" height="30" viewBox="0 0 108 30" fill="none" xmlns="http://www.w3.org/2000/svg">
<path fill-rule="evenodd" clip-rule="evenodd" d="M101.612 30L97.9839 15.5775C97.5463 13.8476 97.257 12.1168 96.9676 10.5302H96.8214C96.5321 12.261 96.3859 13.8476 95.9504 15.7217L92.3199 30H86.0784L94.3534 0.00203037H99.2894L108 30H101.612ZM6.38674 0.00203037L10.0161 14.4236C10.5969 16.1544 10.742 17.8862 11.0324 19.4708H11.1776C11.4679 17.741 11.6131 16.0091 12.0486 14.2793L15.678 0.00203037H21.9196L13.6456 30H8.70956L0 0.00203037H6.38674ZM26.418 0.00203037H32.3703V30H26.418V0.00203037ZM66.0491 0.00203037L69.0958 17.742L71.5638 0.00203037H79.5475L82.5962 30H76.4998L75.048 8.36668L74.0318 15.7217L71.5638 30H66.9192L64.0156 15.5775L62.9994 8.94363V8.36668H62.8542L61.9832 30H55.5954L58.2096 0.00203037H66.0491ZM47.1772 0.00203037C46.161 0.723209 45.4361 2.02031 44.8554 3.31843C43.2585 6.92433 44.9996 9.80802 46.4513 12.4043C46.5975 12.6927 46.8889 13.1254 47.032 13.5582C50.3711 19.0381 51.5325 23.0757 49.2107 28.8441L48.63 29.999H41.3712C42.2423 29.2768 43.1123 28.2692 43.5478 27.1143C45.291 23.2199 43.2585 19.615 41.3712 16.0081C39.1946 11.8263 36.8707 7.50025 39.3387 1.58659C39.4849 1.00965 40.0656 0 40.0656 0H47.1772V0.00203037Z" fill="#3D348B"/>
</svg>
