<svg width="25" height="24" viewBox="0 0 25 24" fill="none" xmlns="http://www.w3.org/2000/svg">
<g id="ic:round-search">
<path id="Vector" d="M17.9719 15.7301H16.971L16.6163 15.3882C17.408 14.4689 17.9867 13.386 18.3109 12.2171C18.635 11.0482 18.6966 9.82217 18.4913 8.62668C17.8959 5.10665 14.9566 2.29569 11.4091 1.86518C10.162 1.7075 8.89525 1.83704 7.7059 2.24389C6.51654 2.65074 5.43607 3.32412 4.54717 4.2125C3.65826 5.10088 2.98449 6.18072 2.5774 7.36938C2.17031 8.55804 2.04069 9.82402 2.19847 11.0704C2.62923 14.6158 5.44184 17.5534 8.96394 18.1485C10.1601 18.3537 11.3869 18.2921 12.5565 17.9681C13.7261 17.6442 14.8096 17.0658 15.7294 16.2745L16.0715 16.6291V17.6294L21.456 23.0107C21.9754 23.5298 22.8243 23.5298 23.3437 23.0107C23.8632 22.4916 23.8632 21.6432 23.3437 21.1241L17.9719 15.7301ZM10.3702 15.7301C7.21556 15.7301 4.66901 13.185 4.66901 10.0322C4.66901 6.87933 7.21556 4.33427 10.3702 4.33427C13.5249 4.33427 16.0715 6.87933 16.0715 10.0322C16.0715 13.185 13.5249 15.7301 10.3702 15.7301Z" fill="#3D348B"/>
</g>
</svg>
