<svg width="80" height="80" viewBox="0 0 80 80" fill="none" xmlns="http://www.w3.org/2000/svg">
<path d="M31.6666 31.0833V48.9167C31.6666 50.1945 32.25 51.1667 33.4166 51.8333C34.5833 52.5 35.7222 52.4444 36.8333 51.6667L50.6666 42.8333C51.7222 42.1667 52.25 41.2222 52.25 40C52.25 38.7778 51.7222 37.8333 50.6666 37.1667L36.8333 28.3333C35.7222 27.5556 34.5833 27.5 33.4166 28.1667C32.25 28.8333 31.6666 29.8056 31.6666 31.0833ZM40 73.3333C35.3888 73.3333 31.0555 72.4578 27 70.7067C22.9444 68.9578 19.4166 66.5833 16.4166 63.5833C13.4166 60.5833 11.0422 57.0556 9.29329 53C7.54218 48.9444 6.66663 44.6111 6.66663 40C6.66663 35.3889 7.54218 31.0556 9.29329 27C11.0422 22.9445 13.4166 19.4167 16.4166 16.4167C19.4166 13.4167 22.9444 11.0411 27 9.29C31.0555 7.54112 35.3888 6.66667 40 6.66667C44.6111 6.66667 48.9444 7.54112 53 9.29C57.0555 11.0411 60.5833 13.4167 63.5833 16.4167C66.5833 19.4167 68.9577 22.9445 70.7066 27C72.4577 31.0556 73.3333 35.3889 73.3333 40C73.3333 44.6111 72.4577 48.9444 70.7066 53C68.9577 57.0556 66.5833 60.5833 63.5833 63.5833C60.5833 66.5833 57.0555 68.9578 53 70.7067C48.9444 72.4578 44.6111 73.3333 40 73.3333Z" fill="white"/>
</svg>
